<?xml version="1.0" encoding="iso-8859-1"?>
<!-- Generator: Adobe Illustrator 18.0.0, SVG Export Plug-In . SVG Version: 6.00 Build 0)  -->
<!DOCTYPE svg PUBLIC "-//W3C//DTD SVG 1.1//EN" "http://www.w3.org/Graphics/SVG/1.1/DTD/svg11.dtd">
<svg version="1.1" id="Capa_1" xmlns="http://www.w3.org/2000/svg" xmlns:xlink="http://www.w3.org/1999/xlink" x="0px" y="0px"
	 viewBox="0 0 297 297" style="enable-background:new 0 0 297 297;" xml:space="preserve">
<g>
	<path d="M178.629,111.357c-10.11,0-19.242,4.289-25.689,11.151c-6.448-6.862-15.581-11.151-25.692-11.151
		c-19.49,0-35.347,15.932-35.347,35.515c0,32.02,50.431,62.335,56.182,65.687c1.501,0.876,3.179,1.313,4.858,1.313
		c1.679,0,3.356-0.437,4.858-1.313c5.75-3.352,56.176-33.667,56.176-65.687C213.975,127.289,198.118,111.357,178.629,111.357z
		 M152.94,192.913c-17.866-11.395-41.742-31.535-41.742-46.041c0-8.942,7.2-16.217,16.049-16.217
		c8.847,0,16.044,7.274,16.044,16.217c0,5.328,4.32,9.648,9.649,9.648c5.328,0,9.648-4.32,9.648-9.648
		c0-8.942,7.195-16.217,16.04-16.217c8.849,0,16.048,7.274,16.048,16.217C194.677,161.377,170.803,181.516,152.94,192.913z"/>
	<path d="M152.938,51.287c-57.993,0-105.174,47.181-105.174,105.174c0,57.992,47.181,105.173,105.174,105.173
		c57.992,0,105.173-47.181,105.173-105.173C258.11,98.468,210.93,51.287,152.938,51.287z M152.938,242.336
		c-47.353,0-85.876-38.523-85.876-85.875c0-47.353,38.523-85.876,85.876-85.876c47.352,0,85.875,38.523,85.875,85.876
		C238.813,203.812,200.289,242.336,152.938,242.336z"/>
	<path d="M292.795,81.103c-4.25-20.558-10.164-38.391-10.413-39.14c-1.497-4.489-6.029-7.227-10.699-6.474
		c-4.672,0.759-8.105,4.793-8.105,9.525v206.969c0,5.329,4.32,9.649,9.649,9.649c5.328,0,9.649-4.32,9.649-9.649V148.04
		c3.091-1.502,5.777-3.767,7.901-6.714C298.343,130.831,299.002,111.133,292.795,81.103z"/>
	<path d="M67.062,79.268V45.015c0-5.329-4.32-9.649-9.648-9.649c-5.329,0-9.649,4.32-9.649,9.649v34.253
		c0,2.092-1.768,3.86-3.859,3.86H43.18V45.015c0-5.329-4.32-9.649-9.649-9.649c-5.328,0-9.648,4.32-9.648,9.649v38.113h-0.725
		c-2.092,0-3.859-1.768-3.859-3.86V45.015c0-5.329-4.32-9.649-9.649-9.649C4.32,35.366,0,39.686,0,45.015v34.253
		c0,12.77,10.389,23.157,23.157,23.157h0.725v149.559c0,5.329,4.32,9.649,9.648,9.649c5.329,0,9.649-4.32,9.649-9.649V102.426h0.725
		C56.673,102.426,67.062,92.038,67.062,79.268z"/>
</g>
<g>
</g>
<g>
</g>
<g>
</g>
<g>
</g>
<g>
</g>
<g>
</g>
<g>
</g>
<g>
</g>
<g>
</g>
<g>
</g>
<g>
</g>
<g>
</g>
<g>
</g>
<g>
</g>
<g>
</g>
</svg>
